# xmcd
#
# Track frame offsets:
#	150
#	12283
#	22936
#	34023
#	44523
#	57748
#	67367
#	80095
#	91755
#	101612
#	112898
#	126818
#	137192
#	147917
#	160575
#	172302
#	184796
#	197938
#	208307
#	219627
#	231127
#	239724
#	251570
#	260732
#	271876
#	283711
#	297990
#	305008
#	313431
#	323189
#	333915
#
# Disc length: 4582 seconds
# Revision: 0
# Processed by: cddbd v1.5.2PL0 Copyright (c) Steve Scherf et al.
# Submitted via: dBpowerAMP V12.0
#
DISCID=f111e41f
DTITLE=Champ Butler - Down Yonder With Champ Butler
DYEAR=2012
DGENRE=Nostalgia
TTITLE0=It Happened Once Before
TTITLE1=Ya Ha Bibiti Baby
TTITLE2=I Can't Believe That You're In Love With Me (45 Version)
TTITLE3=Night Of My Nights
TTITLE4=An Angel Kissed Me Last Night
TTITLE5=The Flame Is Still Burning
TTITLE6=I'll Cry Tomorrow
TTITLE7=I'm Coming Over To Love You Tonight
TTITLE8=I Can't Believe That You're In Love With Me (EP Version)
TTITLE9=Loch Lomond
TTITLE10=I'll Always Be In Love With You
TTITLE11=Nice Work If You Can Get It
TTITLE12=Someone On My Mind
TTITLE13=I Want To Love You
TTITLE14=I've Reached The Point Of No Return
TTITLE15=I Got Home
TTITLE16=Down In Mexico
TTITLE17=The Joshua Tree
TTITLE18=Once Upon A Summertime
TTITLE19=Let There Be Peace On Earth
TTITLE20=Hunky Dory
TTITLE21=A Little White Church
TTITLE22=Mississippi Mud
TTITLE23=Heartbreak Cannonball
TTITLE24=Them There Eyes Cha-Cha
TTITLE25=Mourning In The Morning
TTITLE26=This Can't Be Love
TTITLE27=Ooh Look-A There Ain't She Pretty (1959 Version)
TTITLE28=A Thousand Times
TTITLE29=Bread
TTITLE30=Rock Hudson Rock
EXTD=
EXTT0=
EXTT1=
EXTT2=
EXTT3=
EXTT4=
EXTT5=
EXTT6=
EXTT7=
EXTT8=
EXTT9=
EXTT10=
EXTT11=
EXTT12=
EXTT13=
EXTT14=
EXTT15=
EXTT16=
EXTT17=
EXTT18=
EXTT19=
EXTT20=
EXTT21=
EXTT22=
EXTT23=
EXTT24=
EXTT25=
EXTT26=
EXTT27=
EXTT28=
EXTT29=
EXTT30=
PLAYORDER=
